<mxfile host="drawio-plugin" modified="2021-10-26T16:06:36.186Z" agent="5.0 (X11; Linux x86_64) AppleWebKit/537.36 (KHTML, like Gecko) Chrome/89.0.4389.114 Safari/537.36" etag="Hmk5qw3N4BK77CBG5044" version="14.7.4" type="embed"><diagram id="C5RBs43oDa-KdzZeNtuy" name="Page-1"><mxGraphModel dx="1142" dy="635" grid="1" gridSize="10" guides="1" tooltips="1" connect="1" arrows="1" fold="1" page="1" pageScale="1" pageWidth="1169" pageHeight="827" math="0" shadow="0"><root><mxCell id="WIyWlLk6GJQsqaUBKTNV-0"/><mxCell id="WIyWlLk6GJQsqaUBKTNV-1" parent="WIyWlLk6GJQsqaUBKTNV-0"/><mxCell id="0" value="«interface»&lt;br&gt;&lt;span style=&quot;text-align: left&quot;&gt;HandlerInterface&lt;/span&gt;" style="html=1;" parent="WIyWlLk6GJQsqaUBKTNV-1" vertex="1"><mxGeometry x="290" y="180" width="110" height="50" as="geometry"/></mxCell><mxCell id="5" value="AbstractHandler" style="swimlane;fontStyle=1;align=center;verticalAlign=top;childLayout=stackLayout;horizontal=1;startSize=26;horizontalStack=0;resizeParent=1;resizeParentMax=0;resizeLast=0;collapsible=1;marginBottom=0;" parent="WIyWlLk6GJQsqaUBKTNV-1" vertex="1"><mxGeometry x="215" y="276" width="260" height="138" as="geometry"/></mxCell><mxCell id="6" value="- numberHandler: static int" style="text;strokeColor=none;fillColor=none;align=left;verticalAlign=top;spacingLeft=4;spacingRight=4;overflow=hidden;rotatable=0;points=[[0,0.5],[1,0.5]];portConstraint=eastwest;" parent="5" vertex="1"><mxGeometry y="26" width="260" height="26" as="geometry"/></mxCell><mxCell id="9" value="- nextHandler: HandlerInterface" style="text;strokeColor=none;fillColor=none;align=left;verticalAlign=top;spacingLeft=4;spacingRight=4;overflow=hidden;rotatable=0;points=[[0,0.5],[1,0.5]];portConstraint=eastwest;" parent="5" vertex="1"><mxGeometry y="52" width="260" height="26" as="geometry"/></mxCell><mxCell id="7" value="" style="line;strokeWidth=1;fillColor=none;align=left;verticalAlign=middle;spacingTop=-1;spacingLeft=3;spacingRight=3;rotatable=0;labelPosition=right;points=[];portConstraint=eastwest;" parent="5" vertex="1"><mxGeometry y="78" width="260" height="8" as="geometry"/></mxCell><mxCell id="8" value="+ handleRequest(array): string | null" style="text;strokeColor=none;fillColor=none;align=left;verticalAlign=top;spacingLeft=4;spacingRight=4;overflow=hidden;rotatable=0;points=[[0,0.5],[1,0.5]];portConstraint=eastwest;" parent="5" vertex="1"><mxGeometry y="86" width="260" height="26" as="geometry"/></mxCell><mxCell id="10" value="+ setNext(HandlerInterface): HandlerInterface" style="text;strokeColor=none;fillColor=none;align=left;verticalAlign=top;spacingLeft=4;spacingRight=4;overflow=hidden;rotatable=0;points=[[0,0.5],[1,0.5]];portConstraint=eastwest;" vertex="1" parent="5"><mxGeometry y="112" width="260" height="26" as="geometry"/></mxCell><mxCell id="17" value="" style="endArrow=block;dashed=1;endFill=0;endSize=12;html=1;" edge="1" parent="5"><mxGeometry width="160" relative="1" as="geometry"><mxPoint x="125" y="-6" as="sourcePoint"/><mxPoint x="125" y="-46" as="targetPoint"/></mxGeometry></mxCell><mxCell id="11" value="HandlerSecGPS" style="swimlane;fontStyle=0;childLayout=stackLayout;horizontal=1;startSize=26;fillColor=none;horizontalStack=0;resizeParent=1;resizeParentMax=0;resizeLast=0;collapsible=1;marginBottom=0;" vertex="1" parent="WIyWlLk6GJQsqaUBKTNV-1"><mxGeometry x="70" y="510" width="140" height="52" as="geometry"/></mxCell><mxCell id="15" value="HandlerSecLogPass" style="swimlane;fontStyle=0;childLayout=stackLayout;horizontal=1;startSize=26;fillColor=none;horizontalStack=0;resizeParent=1;resizeParentMax=0;resizeLast=0;collapsible=1;marginBottom=0;" vertex="1" parent="WIyWlLk6GJQsqaUBKTNV-1"><mxGeometry x="275" y="510" width="140" height="52" as="geometry"/></mxCell><mxCell id="18" value="Extends" style="endArrow=block;endSize=16;endFill=0;html=1;entryX=0.48;entryY=1.027;entryDx=0;entryDy=0;entryPerimeter=0;" edge="1" parent="15" target="10"><mxGeometry width="160" relative="1" as="geometry"><mxPoint x="65" as="sourcePoint"/><mxPoint x="225" as="targetPoint"/></mxGeometry></mxCell><mxCell id="16" value="HandlerSecPermissions" style="swimlane;fontStyle=0;childLayout=stackLayout;horizontal=1;startSize=26;fillColor=none;horizontalStack=0;resizeParent=1;resizeParentMax=0;resizeLast=0;collapsible=1;marginBottom=0;" vertex="1" parent="WIyWlLk6GJQsqaUBKTNV-1"><mxGeometry x="480" y="510" width="140" height="52" as="geometry"/></mxCell><mxCell id="19" value="" style="endArrow=none;html=1;exitX=0.5;exitY=0;exitDx=0;exitDy=0;" edge="1" parent="WIyWlLk6GJQsqaUBKTNV-1" source="11"><mxGeometry width="50" height="50" relative="1" as="geometry"><mxPoint x="120" y="500" as="sourcePoint"/><mxPoint x="140" y="480" as="targetPoint"/></mxGeometry></mxCell><mxCell id="21" value="" style="endArrow=none;html=1;" edge="1" parent="WIyWlLk6GJQsqaUBKTNV-1"><mxGeometry width="50" height="50" relative="1" as="geometry"><mxPoint x="140" y="480" as="sourcePoint"/><mxPoint x="560" y="480" as="targetPoint"/></mxGeometry></mxCell><mxCell id="22" value="" style="endArrow=none;html=1;" edge="1" parent="WIyWlLk6GJQsqaUBKTNV-1"><mxGeometry width="50" height="50" relative="1" as="geometry"><mxPoint x="560" y="510" as="sourcePoint"/><mxPoint x="560" y="480" as="targetPoint"/></mxGeometry></mxCell></root></mxGraphModel></diagram></mxfile>